<svg width="1410" height="378" viewBox="0 0 1410 378" fill="none" xmlns="http://www.w3.org/2000/svg">
<g clip-path="url(#clip0_504_2)">
<path d="M251.12 59.74V241.04C251.12 266.2 243.843 285.81 229.29 299.87C214.737 313.683 195.25 320.59 170.83 320.59C146.163 320.59 126.183 313.437 110.89 299.13C95.8433 284.823 88.32 264.843 88.32 239.19H140.12C140.367 250.29 142.957 258.923 147.89 265.09C153.07 271.257 160.47 274.34 170.09 274.34C179.463 274.34 186.617 271.38 191.55 265.46C196.483 259.54 198.95 251.4 198.95 241.04V59.74H251.12ZM558.07 268.79H455.21L438.19 318H383.8L476.67 59.37H536.98L629.85 318H575.09L558.07 268.79ZM544.01 227.35L506.64 119.31L469.27 227.35H544.01ZM740.147 188.5C740.147 163.093 745.821 140.4 757.167 120.42C768.761 100.193 784.424 84.53 804.157 73.43C824.137 62.0833 846.461 56.41 871.127 56.41C899.987 56.41 925.271 63.81 946.977 78.61C968.684 93.41 983.854 113.883 992.487 140.03H932.917C926.997 127.697 918.611 118.447 907.757 112.28C897.151 106.113 884.817 103.03 870.757 103.03C855.711 103.03 842.267 106.607 830.427 113.76C818.834 120.667 809.707 130.533 803.047 143.36C796.634 156.187 793.427 171.233 793.427 188.5C793.427 205.52 796.634 220.567 803.047 233.64C809.707 246.467 818.834 256.457 830.427 263.61C842.267 270.517 855.711 273.97 870.757 273.97C884.817 273.97 897.151 270.887 907.757 264.72C918.611 258.307 926.997 248.933 932.917 236.6H992.487C983.854 262.993 968.684 283.59 946.977 298.39C925.517 312.943 900.234 320.22 871.127 320.22C846.461 320.22 824.137 314.67 804.157 303.57C784.424 292.223 768.761 276.56 757.167 256.58C745.821 236.6 740.147 213.907 740.147 188.5ZM1330.25 59.74L1242.93 228.09V318H1191.13V228.09L1103.44 59.74H1161.9L1217.4 177.77L1272.53 59.74H1330.25Z" fill="white"/>
</g>
<defs>
<clipPath id="clip0_504_2">
<rect width="1410" height="378" fill="white"/>
</clipPath>
</defs>
</svg>
